<svg xmlns="http://www.w3.org/2000/svg" width="600" height="300"><g data-width="545.28" fill="#0788DE" stroke="#0788DE" stroke-linecap="square" stroke-linejoin="square" stroke-width="0.114"><path d="M107.01 79.75l9.2 4.16q1.3.54 2.08 1.8.79 1.26.79 2.69h0v35.86q0 1.43-.79 2.72-.78 1.3-2.08 1.84h0l-9.2 4.09q-1.36.62-2.73.62h0-27.4q-1.77 0-2.99-1.23-1.23-1.23-1.23-3h0V83.36q0-1.7 1.23-2.96 1.22-1.27 2.99-1.27h27.4q1.37 0 2.73.62h0zm1.43 46.14V86.84q0-1.71-1.36-2.32h0l-2.8-1.3q-.27-.13-.51-.2-.23-.07-.58-.07h0-18.33q-.68 0-1.13.44-.44.45-.44 1.13h0v43.62q0 .68.44 1.13.45.44 1.13.44h18.33q.35 0 .58-.07.24-.07.51-.2h0l2.8-1.3q.68-.34 1.02-.92.34-.58.34-1.33h0zM170.878 133.53l-5.32-15.2h-23.44l-5.59 15.2h-11.45l19.01-51.26q.55-1.36 1.81-2.32 1.26-.95 2.76-.95h4.91q1.63 0 2.89.95 1.26.96 1.81 2.32h0l18.06 51.26h-5.45zm-27.4-19.02h20.72l-9.47-27.2q-.21-.34-.62-.37-.41-.04-.61.37h0l-10.02 27.2zM229.426 79v3.81h-19.7v50.72h-10.77V82.81h-19.7v-3.74l50.17-.07zM279.934 133.53l-5.32-15.2h-23.44l-5.59 15.2h-11.45l19.01-51.26q.55-1.36 1.81-2.32 1.26-.95 2.76-.95h4.91q1.63 0 2.89.95 1.26.96 1.81 2.32h0l18.06 51.26h-5.45zm-27.4-19.02h20.72l-9.47-27.2q-.21-.34-.62-.37-.41-.04-.61.37h0l-10.02 27.2zM323.762 82.27h0q.41-1.36 1.53-2.32 1.13-.95 2.63-.95h6.33q1.78 0 3 1.26 1.23 1.26 1.23 2.96h0v50.31h-10.43V93.11q0-.21-.17-.21t-.24.14h0l-8.93 37.28q-.34 1.43-1.5 2.32-1.15.89-2.59.89h0-5.04q-1.43 0-2.56-.89-1.12-.89-1.46-2.32h0l-8.93-37.01q-.07-.13-.24-.13-.17 0-.17.2h0v40.15h-6.41V83.22q0-1.7 1.23-2.96t3-1.26h6.27q1.57 0 2.69.95 1.13.96 1.47 2.32h0l9.68 40.21 9.61-40.21zM388.99 133.53l-5.32-15.2h-23.44l-5.59 15.2h-11.45l19.01-51.26q.55-1.36 1.81-2.32 1.26-.95 2.76-.95h4.91q1.63 0 2.89.95 1.26.96 1.81 2.32h0l18.06 51.26h-5.45zm-27.4-19.02h20.72l-9.47-27.2q-.21-.34-.62-.37-.41-.04-.61.37h0l-10.02 27.2zM442.498 128.75l6.88 1.3v3.61l-15.2-2.72q-2.45-.55-3.61-2.73h0l-9.75-20.24h-12.88v25.56h-10.63V83.36q0-1.77 1.19-3.03 1.19-1.26 2.96-1.26h38.17q1.78 0 2.97 1.19 1.19 1.19 1.19 2.96h0v20.59q0 1.7-1.19 2.93-1.19 1.23-2.97 1.23h0-8.31l9.34 19.49q.2.48.75.82.54.34 1.09.47h0zm-34.56-44.44v19.91h23.79q.54 0 .99-.41.44-.41.44-1.02h0V84.18q0-.55-.44-.96-.45-.41-.99-.41h0-22.22q-.68 0-1.13.41-.44.41-.44 1.09h0zM489.386 133.53l-16.22-26.72-9 10.22v16.43h-10.42V79h10.42v30.19l26.72-30.33h6.75l-18.06 20.65 21.33 34.02h-11.52zM521.354 82.81h0q-.68 0-1.09.48-.41.48-.41 1.16h0v19.84h31.7v3.81h-31.7v20.04q0 .68.41 1.13.41.44 1.09.44h31.9l-2.04 3.82h-37.76q-1.78 0-3-1.23-1.23-1.23-1.23-3h0V83.09q0-1.71 1.23-2.9 1.22-1.19 3-1.19h39.8v3.81h-31.9zM611.122 79v3.81h-19.7v50.72h-10.77V82.81h-19.7v-3.74l50.17-.07z" data-glyph-w="54.528" data-glyph-h="71.364" data-glyph-ascender="58.549" data-glyph-descender="-12.814"></path></g></svg>